<svg width="274" height="251" viewBox="0 0 274 251" fill="none" xmlns="http://www.w3.org/2000/svg">
<path d="M71.3023 199.667C53.0369 199.667 36.7897 187.972 30.8899 170.561L30.4909 169.249C29.0996 164.638 28.5167 160.761 28.5167 156.881V79.0898L0.837645 171.484C-2.72225 185.074 5.38989 199.163 19.0006 202.917L195.427 250.165C197.629 250.736 199.83 251.009 201.999 251.009C213.362 251.009 223.745 243.468 226.655 232.353L236.934 199.667H71.3023Z" fill="white" fill-opacity="0.5"/>
<path d="M102.679 79.8679C115.264 79.8679 125.497 69.6332 125.497 57.0482C125.497 44.4632 115.264 34.2285 102.679 34.2285C90.0941 34.2285 79.8594 44.4632 79.8594 57.0482C79.8594 69.6332 90.0941 79.8679 102.679 79.8679Z" fill="white" fill-opacity="0.5"/>
<path d="M245.297 0H74.1549C58.4341 0 45.6318 12.8023 45.6318 28.5251V154.028C45.6318 169.751 58.4341 182.553 74.1549 182.553H245.297C261.02 182.553 273.823 169.751 273.823 154.028V28.5251C273.823 12.8023 261.02 0 245.297 0ZM74.1549 22.8197H245.297C248.448 22.8197 251.003 25.3747 251.003 28.5251V109.521L214.961 67.4647C211.138 62.9814 205.604 60.5851 199.66 60.4493C193.75 60.4827 188.205 63.1067 184.418 67.6485L142.042 118.511L128.237 104.739C120.434 96.9362 107.734 96.9362 99.9412 104.739L68.4515 136.218V28.5251C68.4515 25.3747 71.0066 22.8197 74.1549 22.8197Z" fill="white" fill-opacity="0.5"/>
<line x1="118.771" y1="78.3643" x2="154.425" y2="78.3643" stroke="#D9D9D9" stroke-width="3"/>
<line x1="138.099" y1="62.0371" x2="138.099" y2="97.6909" stroke="#D9D9D9" stroke-width="3"/>
</svg>
