<svg width="97" height="50" viewBox="0 0 97 50" fill="none" xmlns="http://www.w3.org/2000/svg">
<path d="M3.66699 49.8712V42.7471H6.47843C8.7123 42.7471 10.2624 44.1681 10.2624 46.3034C10.2624 48.4616 8.7123 49.8712 6.48989 49.8712H3.66699ZM8.71153 46.3034C8.71153 45.0543 7.94297 44.0817 6.48989 44.0817H5.18578V48.5357H6.47766C7.88796 48.5365 8.71153 47.5212 8.71153 46.3034Z" fill="white"/>
<path d="M11.0879 43.3466C11.0879 42.8982 11.4523 42.5444 11.8893 42.5444C12.3385 42.5444 12.7014 42.8982 12.7014 43.3466C12.7014 43.7935 12.3385 44.1587 11.8893 44.1587C11.4515 44.158 11.0879 43.7935 11.0879 43.3466ZM11.2162 49.871V44.7118H12.5731V49.871H11.2162Z" fill="white"/>
<path d="M13.3379 49.1981L13.9246 48.2149C14.3097 48.5785 15.0698 48.9315 15.7108 48.9315C16.2975 48.9315 16.5764 48.7077 16.5764 48.3868C16.5764 47.5441 13.519 48.237 13.519 46.2079C13.519 45.3439 14.2669 44.5845 15.6352 44.5845C16.5023 44.5845 17.196 44.8832 17.7086 45.2889L17.1647 46.2507C16.856 45.9306 16.2662 45.6525 15.6352 45.6525C15.1447 45.6525 14.8231 45.8657 14.8231 46.1544C14.8231 46.9131 17.8897 46.2713 17.8897 48.3555C17.8897 49.3051 17.0776 49.9988 15.6451 49.9988C14.749 49.9995 13.8826 49.7008 13.3379 49.1981Z" fill="white"/>
<path d="M18.4209 47.2864C18.4209 45.7057 19.576 44.585 21.1575 44.585C22.2156 44.585 22.8573 45.0433 23.1988 45.5147L22.3126 46.3475C22.0666 45.9846 21.6915 45.792 21.2201 45.792C20.3981 45.792 19.8228 46.3902 19.8228 47.2864C19.8228 48.1841 20.3981 48.7937 21.2201 48.7937C21.6915 48.7937 22.0658 48.579 22.3126 48.2268L23.1988 49.0603C22.8573 49.5294 22.2156 50 21.1575 50C19.576 49.9993 18.4209 48.8785 18.4209 47.2864Z" fill="white"/>
<path d="M23.4766 47.2864C23.4766 45.8218 24.5018 44.585 26.2009 44.585C27.9107 44.585 28.9375 45.8226 28.9375 47.2864C28.9375 48.7494 27.9107 49.9993 26.2009 49.9993C24.5018 49.9993 23.4766 48.7494 23.4766 47.2864ZM27.5287 47.2864C27.5287 46.4873 27.0573 45.792 26.2017 45.792C25.3582 45.792 24.8884 46.4873 24.8884 47.2864C24.8884 48.0993 25.3582 48.7937 26.2017 48.7937C27.0573 48.7937 27.5287 48.0993 27.5287 47.2864Z" fill="white"/>
<path d="M31.0238 49.871L28.9512 44.7119H30.402L31.7489 48.3011L33.1064 44.7119H34.5603L32.4869 49.871H31.0238Z" fill="white"/>
<path d="M34.5664 47.2864C34.5664 45.792 35.6772 44.585 37.2365 44.585C38.7866 44.585 39.8249 45.7393 39.8249 47.414V47.7356H35.9882C36.0852 48.3651 36.5963 48.89 37.4733 48.89C37.9119 48.89 38.5085 48.7081 38.8416 48.3873L39.4505 49.2842C38.9379 49.754 38.1258 50 37.3244 50C35.7521 49.9993 34.5664 48.9419 34.5664 47.2864ZM37.2365 45.695C36.3931 45.695 36.0302 46.284 35.9767 46.7959H38.5208C38.478 46.3031 38.1357 45.695 37.2365 45.695Z" fill="white"/>
<path d="M40.6826 49.8712V44.7121H42.0394V45.4065C42.413 44.9596 43.0448 44.5845 43.6858 44.5845V45.9077C43.5895 45.8871 43.4727 45.8764 43.3115 45.8764C42.8638 45.8764 42.2641 46.1308 42.0394 46.4631V49.8697H40.6826V49.8712Z" fill="white"/>
<path d="M51.3373 49.8712L49.9369 47.3401H48.8261V49.8712H47.3096V42.7471H50.642C52.1295 42.7471 53.0478 43.7188 53.0478 45.0436C53.0478 46.2942 52.2441 46.9772 51.4755 47.1583L53.0883 49.8719L51.3373 49.8712ZM51.4878 45.0329C51.4878 44.4462 51.0286 44.0817 50.4297 44.0817H48.8261V46.0054H50.4297C51.0286 46.0062 51.4878 45.6433 51.4878 45.0329Z" fill="white"/>
<path d="M53.5967 47.2864C53.5967 45.792 54.709 44.585 56.2683 44.585C57.8161 44.585 58.8536 45.7393 58.8536 47.414V47.7356H55.0177C55.1139 48.3651 55.6281 48.89 56.5021 48.89C56.9421 48.89 57.5396 48.7081 57.8711 48.3873L58.48 49.2842C57.9682 49.754 57.1553 50 56.3539 50C54.7831 49.9993 53.5967 48.9419 53.5967 47.2864ZM56.2683 45.695C55.4233 45.695 55.0612 46.284 55.007 46.7959H57.5503C57.506 46.3031 57.1645 45.695 56.2683 45.695Z" fill="white"/>
<path d="M59.7256 49.8712V42.7471H61.0824V49.8712H59.7256Z" fill="white"/>
<path d="M62.1426 43.3466C62.1426 42.8982 62.5055 42.5444 62.944 42.5444C63.3924 42.5444 63.7561 42.8982 63.7561 43.3466C63.7561 43.7935 63.3924 44.1587 62.944 44.1587C62.5047 44.158 62.1426 43.7935 62.1426 43.3466ZM62.2686 49.871V44.7118H63.627V49.871H62.2686Z" fill="white"/>
<path d="M68.4017 49.8709V49.2086C67.9945 49.7212 67.4391 49.9993 66.8081 49.9993C65.5147 49.9993 64.5215 49.0183 64.5215 47.2864C64.5215 45.6102 65.494 44.585 66.8081 44.585C67.4185 44.585 67.9823 44.8409 68.4017 45.3757V44.7118H69.7685V49.8709H68.4017ZM68.4017 48.2054V46.391C68.1771 46.048 67.6843 45.7928 67.2367 45.7928C66.4559 45.7928 65.9219 46.4017 65.9219 47.2871C65.9219 48.1848 66.4551 48.7945 67.2367 48.7945C67.6843 48.7937 68.1771 48.5477 68.4017 48.2054Z" fill="white"/>
<path d="M70.9658 49.8712V42.7471H72.3234V45.3759C72.7291 44.8411 73.3051 44.5852 73.9171 44.5852C75.2288 44.5852 76.2021 45.6105 76.2021 47.2866C76.2021 49.0193 75.2181 49.9995 73.9171 49.9995C73.2959 49.9995 72.7291 49.7222 72.3234 49.2088V49.8712H70.9658ZM73.4992 48.7939C74.28 48.7939 74.8033 48.1843 74.8033 47.2866C74.8033 46.4012 74.28 45.7923 73.4992 45.7923C73.0507 45.7923 72.5579 46.0475 72.3234 46.3905V48.2156C72.5579 48.5479 73.0507 48.7939 73.4992 48.7939Z" fill="white"/>
<path d="M77.1279 49.8712V42.7471H78.4855V49.8712H77.1279Z" fill="white"/>
<path d="M79.3604 47.2864C79.3604 45.792 80.4704 44.585 82.0312 44.585C83.5813 44.585 84.6173 45.7393 84.6173 47.414V47.7356H80.7813C80.8784 48.3651 81.3918 48.89 82.2688 48.89C82.705 48.89 83.3032 48.7081 83.6348 48.3873L84.2452 49.2842C83.7311 49.754 82.9197 50 82.1183 50C80.5453 49.9993 79.3604 48.9419 79.3604 47.2864ZM82.0312 45.695C81.187 45.695 80.8241 46.284 80.7714 46.7959H83.3147C83.2712 46.3031 82.9297 45.695 82.0312 45.695Z" fill="white"/>
<path d="M17.7067 25.6978C17.0145 27.701 15.058 29.1449 12.75 29.1449C9.866 29.1449 7.52899 26.8919 7.52899 24.1126C7.52899 21.3309 9.866 19.078 12.75 19.078C14.993 19.078 16.9068 20.4432 17.6456 22.357L24.7796 20.036C23.0354 15.252 18.3079 11.8232 12.75 11.8232C5.70691 11.8232 0 17.3246 0 24.1126C0 30.8982 5.70691 36.3996 12.7492 36.3996C18.3729 36.3996 23.1462 32.8914 24.8399 28.0196L17.7067 25.6978Z" fill="white"/>
<path d="M41.7573 17.3561L48.5262 19.5449V12.2925H26.2822V19.5449L33.0052 17.3561V35.9383H41.7573V17.3561Z" fill="white"/>
<path d="M67.3241 25.6978C66.6342 27.7002 64.6754 29.1449 62.3682 29.1449C59.4826 29.1449 57.1441 26.8919 57.1441 24.1126C57.1441 21.3309 59.4826 19.078 62.3682 19.078C64.6097 19.078 66.525 20.4424 67.2622 22.357L74.3993 20.036C72.6536 15.2512 67.9276 11.8232 62.3682 11.8232C55.3235 11.8232 49.6182 17.3239 49.6182 24.1126C49.6182 30.8982 55.3243 36.3996 62.3682 36.3996C67.9918 36.3996 72.7636 32.8914 74.4581 28.0196L67.3241 25.6978Z" fill="white"/>
<path d="M84.7245 12.2925H76.0449V35.9437H84.7245V12.2925Z" fill="white"/>
<path d="M86.5117 2.95583L91.6334 0L96.7559 2.95583V8.86825L91.6334 11.8225L86.5117 8.86825V2.95583Z" fill="white"/>
</svg>
